# xmcd CD database file
#
# Track frame offsets:
#	150
#	13968
#	30361
#	48258
#	64733
#	81512
#	99013
#	114661
#	130114
#	149426
#	167583
#
# Disc length: 2488 seconds
#
# Revision: 0
# Processed by: cddbd v1.5.2PL0 Copyright (c) Steve Scherf et al.
# Submitted via: CDex 1.51
#
DISCID=8b09b60b
DTITLE=Josh Kelley - Georgia Clay
DYEAR=2011
DGENRE=Country
TTITLE0=Georgia Clay
TTITLE1=A Real Good Try
TTITLE2=Gone Like That
TTITLE3=Baby Blue Eyes
TTITLE4=Naleigh Moon
TTITLE5=Two Cups of Coffee
TTITLE6=Rainin' Whiskey
TTITLE7=Great Idea
TTITLE8=Learning You
TTITLE9=Ain't Lettin' Go
TTITLE10=Don't You Go
EXTD=YEAR: 2011
EXTT0=
EXTT1=
EXTT2=
EXTT3=
EXTT4=
EXTT5=
EXTT6=
EXTT7=
EXTT8=
EXTT9=
EXTT10=
PLAYORDER=
